<?xml version="1.0" encoding="UTF-8" ?>
<!DOCTYPE svg PUBLIC "-//W3C//DTD SVG 1.1//EN" "http://www.w3.org/Graphics/SVG/1.1/DTD/svg11.dtd">

<svg width="290pt" height="232pt" viewBox="0 0 290 232" version="1.1" xmlns="http://www.w3.org/2000/svg">

    <g id="#f1f1f1ff">
        <path opacity="1.00"
              d=" M 146.99 60.57 C 150.09 65.31 152.98 70.18 155.94 75.01 C 150.41 79.81 145.08 84.83 139.52 89.59 C 136.41 92.34 133.66 95.60 129.91 97.53 C 135.69 85.25 141.44 72.96 146.99 60.57 Z"/>
        <path opacity="1.00"
              d=" M 205.56 70.25 C 205.67 69.85 205.89 69.07 206.00 68.68 C 206.13 69.10 206.39 69.92 206.51 70.33 C 194.02 82.55 182.35 95.60 170.09 108.05 C 158.77 120.13 147.08 131.85 135.89 144.05 C 150.49 134.33 165.32 124.97 179.92 115.25 C 187.51 127.30 195.17 139.32 202.70 151.42 C 203.05 151.66 203.75 152.13 204.10 152.37 C 201.15 152.39 198.49 150.95 195.73 150.13 C 183.52 145.82 171.15 142.00 158.99 137.54 C 141.40 147.32 123.86 157.18 106.27 166.97 C 125.75 142.88 145.37 118.90 164.85 94.81 C 165.66 93.72 166.38 92.56 167.14 91.44 C 164.00 94.64 160.15 96.99 156.54 99.62 C 145.32 107.70 134.14 115.86 122.87 123.89 C 112.75 120.00 102.53 116.37 92.59 112.07 C 98.47 110.66 103.92 107.95 109.62 105.99 C 116.38 103.21 123.52 101.28 130.04 97.96 C 134.07 97.04 137.83 95.27 141.74 93.95 C 159.98 86.99 178.29 80.21 196.54 73.29 C 199.53 72.22 202.39 70.71 205.56 70.25 Z"/>
    </g>
    <script>
        const params = new URLSearchParams(window.location.search)
        for (const param of params) {
        document.querySelector('svg').style.fill = param[0].replace('.' , '#')
        }
    </script>
</svg>

